<?xml version="1.0" encoding="UTF-8"?>
<!--Generator: Apple Native CoreSVG 123-->
<!DOCTYPE svg
PUBLIC "-//W3C//DTD SVG 1.1//EN"
       "http://www.w3.org/Graphics/SVG/1.1/DTD/svg11.dtd">
<svg version="1.1" xmlns="http://www.w3.org/2000/svg" xmlns:xlink="http://www.w3.org/1999/xlink" width="3300" height="2200">
 <!--glyph: "uni100202.medium", point size: 100.000000, font version: "Version 15.0d5e5", template writer version: "5"-->
 <g id="Notes">
  <rect height="2200" id="artboard" style="fill:white;opacity:1" width="3300" x="0" y="0"/>
  <line id="" style="fill:none;stroke:black;opacity:1;stroke-width:0.5;" x1="263" x2="3036" y1="292" y2="292"/>
  <text style="stroke:none;fill:black;font-family:-apple-system,&quot;SF Pro Display&quot;,&quot;SF Pro Text&quot;,Helvetica,sans-serif;font-weight:bold;" transform="matrix(1 0 0 1 263 322)">Weight/Scale Variations</text>
  <text style="stroke:none;fill:black;font-family:-apple-system,&quot;SF Pro Display&quot;,&quot;SF Pro Text&quot;,Helvetica,sans-serif;text-anchor:middle;" transform="matrix(1 0 0 1 559.711 322)">Ultralight</text>
  <text style="stroke:none;fill:black;font-family:-apple-system,&quot;SF Pro Display&quot;,&quot;SF Pro Text&quot;,Helvetica,sans-serif;text-anchor:middle;" transform="matrix(1 0 0 1 856.422 322)">Thin</text>
  <text style="stroke:none;fill:black;font-family:-apple-system,&quot;SF Pro Display&quot;,&quot;SF Pro Text&quot;,Helvetica,sans-serif;text-anchor:middle;" transform="matrix(1 0 0 1 1153.13 322)">Light</text>
  <text style="stroke:none;fill:black;font-family:-apple-system,&quot;SF Pro Display&quot;,&quot;SF Pro Text&quot;,Helvetica,sans-serif;text-anchor:middle;" transform="matrix(1 0 0 1 1449.84 322)">Regular</text>
  <text style="stroke:none;fill:black;font-family:-apple-system,&quot;SF Pro Display&quot;,&quot;SF Pro Text&quot;,Helvetica,sans-serif;text-anchor:middle;" transform="matrix(1 0 0 1 1746.56 322)">Medium</text>
  <text style="stroke:none;fill:black;font-family:-apple-system,&quot;SF Pro Display&quot;,&quot;SF Pro Text&quot;,Helvetica,sans-serif;text-anchor:middle;" transform="matrix(1 0 0 1 2043.27 322)">Semibold</text>
  <text style="stroke:none;fill:black;font-family:-apple-system,&quot;SF Pro Display&quot;,&quot;SF Pro Text&quot;,Helvetica,sans-serif;text-anchor:middle;" transform="matrix(1 0 0 1 2339.98 322)">Bold</text>
  <text style="stroke:none;fill:black;font-family:-apple-system,&quot;SF Pro Display&quot;,&quot;SF Pro Text&quot;,Helvetica,sans-serif;text-anchor:middle;" transform="matrix(1 0 0 1 2636.69 322)">Heavy</text>
  <text style="stroke:none;fill:black;font-family:-apple-system,&quot;SF Pro Display&quot;,&quot;SF Pro Text&quot;,Helvetica,sans-serif;text-anchor:middle;" transform="matrix(1 0 0 1 2933.4 322)">Black</text>
  <line id="" style="fill:none;stroke:black;opacity:1;stroke-width:0.5;" x1="263" x2="3036" y1="1903" y2="1903"/>
  <g id="" transform="matrix(1 0 0 1 263 1933)">
   <path d="M 9.24805 0.830078 C 13.5547 0.830078 17.1387 -2.74414 17.1387 -7.05078 C 17.1387 -11.3574 13.5449 -14.9316 9.23828 -14.9316 C 4.94141 -14.9316 1.36719 -11.3574 1.36719 -7.05078 C 1.36719 -2.74414 4.95117 0.830078 9.24805 0.830078 Z M 9.24805 -0.654297 C 5.70312 -0.654297 2.87109 -3.49609 2.87109 -7.05078 C 2.87109 -10.6055 5.69336 -13.4473 9.23828 -13.4473 C 12.793 -13.4473 15.6348 -10.6055 15.6445 -7.05078 C 15.6543 -3.49609 12.8027 -0.654297 9.24805 -0.654297 Z M 9.22852 -3.42773 C 9.69727 -3.42773 9.9707 -3.74023 9.9707 -4.25781 L 9.9707 -6.31836 L 12.1973 -6.31836 C 12.6953 -6.31836 13.0371 -6.57227 13.0371 -7.04102 C 13.0371 -7.51953 12.7148 -7.7832 12.1973 -7.7832 L 9.9707 -7.7832 L 9.9707 -10.0098 C 9.9707 -10.5273 9.69727 -10.8496 9.22852 -10.8496 C 8.75977 -10.8496 8.50586 -10.5078 8.50586 -10.0098 L 8.50586 -7.7832 L 6.29883 -7.7832 C 5.78125 -7.7832 5.44922 -7.51953 5.44922 -7.04102 C 5.44922 -6.57227 5.80078 -6.31836 6.29883 -6.31836 L 8.50586 -6.31836 L 8.50586 -4.25781 C 8.50586 -3.75977 8.75977 -3.42773 9.22852 -3.42773 Z"/>
  </g>
  <g id="" transform="matrix(1 0 0 1 281.506 1933)">
   <path d="M 11.709 2.91016 C 17.1484 2.91016 21.6699 -1.60156 21.6699 -7.05078 C 21.6699 -12.4902 17.1387 -17.0117 11.6992 -17.0117 C 6.25 -17.0117 1.74805 -12.4902 1.74805 -7.05078 C 1.74805 -1.60156 6.25977 2.91016 11.709 2.91016 Z M 11.709 1.25 C 7.09961 1.25 3.41797 -2.44141 3.41797 -7.05078 C 3.41797 -11.6504 7.08984 -15.3516 11.6992 -15.3516 C 16.2988 -15.3516 20 -11.6504 20.0098 -7.05078 C 20.0195 -2.44141 16.3086 1.25 11.709 1.25 Z M 11.6797 -2.41211 C 12.207 -2.41211 12.5195 -2.77344 12.5195 -3.33984 L 12.5195 -6.23047 L 15.5762 -6.23047 C 16.123 -6.23047 16.5039 -6.51367 16.5039 -7.03125 C 16.5039 -7.55859 16.1426 -7.86133 15.5762 -7.86133 L 12.5195 -7.86133 L 12.5195 -10.9277 C 12.5195 -11.5039 12.207 -11.8555 11.6797 -11.8555 C 11.1621 -11.8555 10.8789 -11.4844 10.8789 -10.9277 L 10.8789 -7.86133 L 7.83203 -7.86133 C 7.25586 -7.86133 6.89453 -7.55859 6.89453 -7.03125 C 6.89453 -6.51367 7.28516 -6.23047 7.83203 -6.23047 L 10.8789 -6.23047 L 10.8789 -3.33984 C 10.8789 -2.79297 11.1621 -2.41211 11.6797 -2.41211 Z"/>
  </g>
  <g id="" transform="matrix(1 0 0 1 304.914 1933)">
   <path d="M 14.9707 5.67383 C 21.9336 5.67383 27.6855 -0.078125 27.6855 -7.04102 C 27.6855 -14.0039 21.9238 -19.7559 14.9609 -19.7559 C 7.99805 -19.7559 2.25586 -14.0039 2.25586 -7.04102 C 2.25586 -0.078125 8.00781 5.67383 14.9707 5.67383 Z M 14.9707 3.85742 C 8.92578 3.85742 4.08203 -1.00586 4.08203 -7.04102 C 4.08203 -13.0762 8.91602 -17.9395 14.9609 -17.9395 C 20.9961 -17.9395 25.8594 -13.0762 25.8691 -7.04102 C 25.8789 -1.00586 21.0059 3.85742 14.9707 3.85742 Z M 14.9414 -1.06445 C 15.5176 -1.06445 15.8594 -1.45508 15.8594 -2.06055 L 15.8594 -6.13281 L 20.0977 -6.13281 C 20.6934 -6.13281 21.1133 -6.46484 21.1133 -7.02148 C 21.1133 -7.59766 20.7227 -7.93945 20.0977 -7.93945 L 15.8594 -7.93945 L 15.8594 -12.1875 C 15.8594 -12.8027 15.5176 -13.1934 14.9414 -13.1934 C 14.3848 -13.1934 14.0625 -12.7832 14.0625 -12.1875 L 14.0625 -7.93945 L 9.82422 -7.93945 C 9.20898 -7.93945 8.80859 -7.59766 8.80859 -7.02148 C 8.80859 -6.46484 9.23828 -6.13281 9.82422 -6.13281 L 14.0625 -6.13281 L 14.0625 -2.06055 C 14.0625 -1.47461 14.3848 -1.06445 14.9414 -1.06445 Z"/>
  </g>
  <text style="stroke:none;fill:black;font-family:-apple-system,&quot;SF Pro Display&quot;,&quot;SF Pro Text&quot;,Helvetica,sans-serif;font-weight:bold;" transform="matrix(1 0 0 1 263 1953)">Design Variations</text>
  <text style="stroke:none;fill:black;font-family:-apple-system,&quot;SF Pro Display&quot;,&quot;SF Pro Text&quot;,Helvetica,sans-serif;" transform="matrix(1 0 0 1 263 1971)">Symbols are supported in up to nine weights and three scales.</text>
  <text style="stroke:none;fill:black;font-family:-apple-system,&quot;SF Pro Display&quot;,&quot;SF Pro Text&quot;,Helvetica,sans-serif;" transform="matrix(1 0 0 1 263 1989)">For optimal layout with text and other symbols, vertically align</text>
  <text style="stroke:none;fill:black;font-family:-apple-system,&quot;SF Pro Display&quot;,&quot;SF Pro Text&quot;,Helvetica,sans-serif;" transform="matrix(1 0 0 1 263 2007)">symbols with the adjacent text.</text>
  <rect height="14" id="" style="fill:#00AEEF;stroke:none;opacity:0.4;" width="3" x="776" y="1919"/>
  <g id="" transform="matrix(1 0 0 1 779 1933)">
   <path d="M 10.5273 0 L 12.373 0 L 7.17773 -14.0918 L 5.43945 -14.0918 L 0.244141 0 L 2.08984 0 L 3.50586 -4.0332 L 9.11133 -4.0332 Z M 6.2793 -11.9531 L 6.33789 -11.9531 L 8.59375 -5.52734 L 4.02344 -5.52734 Z"/>
  </g>
  <rect height="14" id="" style="fill:#00AEEF;stroke:none;opacity:0.4;" width="3" x="791.617" y="1919"/>
  <text style="stroke:none;fill:black;font-family:-apple-system,&quot;SF Pro Display&quot;,&quot;SF Pro Text&quot;,Helvetica,sans-serif;font-weight:bold;" transform="matrix(1 0 0 1 776 1953)">Margins</text>
  <text style="stroke:none;fill:black;font-family:-apple-system,&quot;SF Pro Display&quot;,&quot;SF Pro Text&quot;,Helvetica,sans-serif;" transform="matrix(1 0 0 1 776 1971)">Leading and trailing margins on the left and right side of each symbol</text>
  <text style="stroke:none;fill:black;font-family:-apple-system,&quot;SF Pro Display&quot;,&quot;SF Pro Text&quot;,Helvetica,sans-serif;" transform="matrix(1 0 0 1 776 1989)">can be adjusted by modifying the width of the blue rectangles.</text>
  <text style="stroke:none;fill:black;font-family:-apple-system,&quot;SF Pro Display&quot;,&quot;SF Pro Text&quot;,Helvetica,sans-serif;" transform="matrix(1 0 0 1 776 2007)">Modifications are automatically applied proportionally to all</text>
  <text style="stroke:none;fill:black;font-family:-apple-system,&quot;SF Pro Display&quot;,&quot;SF Pro Text&quot;,Helvetica,sans-serif;" transform="matrix(1 0 0 1 776 2025)">scales and weights.</text>
  <g id="" transform="matrix(1 0 0 1 1289 1933)">
   <path d="M 2.83203 3.61328 L 4.375 5.15625 C 5.22461 5.98633 6.19141 5.91797 7.05078 4.9707 L 17.2754 -6.16211 C 17.6953 -5.86914 18.0859 -5.87891 18.5645 -5.97656 L 19.6094 -6.19141 L 20.3027 -5.49805 L 20.2539 -4.98047 C 20.1855 -4.44336 20.3418 -4.0332 20.8398 -3.53516 L 21.6602 -2.72461 C 22.1582 -2.2168 22.8223 -2.1875 23.3008 -2.66602 L 26.5527 -5.91797 C 27.0312 -6.39648 27.002 -7.05078 26.5039 -7.55859 L 25.6836 -8.37891 C 25.1855 -8.87695 24.7656 -9.05273 24.2383 -8.97461 L 23.7109 -8.91602 L 23.0469 -9.58008 L 23.3398 -10.7227 C 23.4766 -11.2891 23.3301 -11.748 22.7148 -12.3535 L 20.3027 -14.7559 C 16.7578 -18.2812 12.2168 -18.1738 9.11133 -15.0391 C 8.68164 -14.6094 8.64258 -14.0234 8.91602 -13.5938 C 9.14062 -13.2227 9.61914 -12.998 10.2734 -13.1641 C 11.7871 -13.5449 13.3008 -13.4277 14.7852 -12.4219 L 14.1602 -10.8398 C 13.9258 -10.2539 13.9453 -9.77539 14.1797 -9.33594 L 3.01758 0.9375 C 2.08008 1.80664 1.97266 2.75391 2.83203 3.61328 Z M 10.6641 -14.6484 C 13.3301 -16.6406 16.6504 -16.3184 19.0527 -13.916 L 21.6797 -11.3086 C 21.9141 -11.0742 21.9434 -10.8887 21.875 -10.5957 L 21.5039 -9.0332 L 23.0762 -7.46094 L 24.0332 -7.54883 C 24.3164 -7.57812 24.4043 -7.55859 24.6387 -7.33398 L 25.2539 -6.70898 L 22.5098 -3.95508 L 21.8848 -4.58008 C 21.6602 -4.80469 21.6406 -4.89258 21.6699 -5.17578 L 21.7578 -6.14258 L 20.1953 -7.70508 L 18.5742 -7.39258 C 18.291 -7.33398 18.1445 -7.33398 17.9004 -7.57812 L 15.7324 -9.75586 C 15.498 -9.99023 15.4688 -10.127 15.5957 -10.4395 L 16.5527 -12.7246 C 14.9512 -14.2578 12.832 -15.1074 10.791 -14.4531 C 10.7031 -14.4238 10.6445 -14.4434 10.6152 -14.4824 C 10.5859 -14.5312 10.5859 -14.5801 10.6641 -14.6484 Z M 4.10156 2.91016 C 3.60352 2.41211 3.7793 2.10938 4.11133 1.80664 L 15.0781 -8.31055 L 16.2988 -7.08008 L 6.15234 3.84766 C 5.84961 4.17969 5.46875 4.27734 5.05859 3.87695 Z"/>
  </g>
  <text style="stroke:none;fill:black;font-family:-apple-system,&quot;SF Pro Display&quot;,&quot;SF Pro Text&quot;,Helvetica,sans-serif;font-weight:bold;" transform="matrix(1 0 0 1 1289 1953)">Exporting</text>
  <text style="stroke:none;fill:black;font-family:-apple-system,&quot;SF Pro Display&quot;,&quot;SF Pro Text&quot;,Helvetica,sans-serif;" transform="matrix(1 0 0 1 1289 1971)">Symbols should be outlined when exporting to ensure the</text>
  <text style="stroke:none;fill:black;font-family:-apple-system,&quot;SF Pro Display&quot;,&quot;SF Pro Text&quot;,Helvetica,sans-serif;" transform="matrix(1 0 0 1 1289 1989)">design is preserved when submitting to Xcode.</text>
  <text id="template-version" style="stroke:none;fill:black;font-family:-apple-system,&quot;SF Pro Display&quot;,&quot;SF Pro Text&quot;,Helvetica,sans-serif;text-anchor:end;" transform="matrix(1 0 0 1 3036 1933)">Template v.1.0</text>
  <text style="stroke:none;fill:black;font-family:-apple-system,&quot;SF Pro Display&quot;,&quot;SF Pro Text&quot;,Helvetica,sans-serif;text-anchor:end;" transform="matrix(1 0 0 1 3036 1951)">Generated from square.and.arrow.up</text>
  <text style="stroke:none;fill:black;font-family:-apple-system,&quot;SF Pro Display&quot;,&quot;SF Pro Text&quot;,Helvetica,sans-serif;text-anchor:end;" transform="matrix(1 0 0 1 3036 1969)">Typeset at 100 points</text>
  <text style="stroke:none;fill:black;font-family:-apple-system,&quot;SF Pro Display&quot;,&quot;SF Pro Text&quot;,Helvetica,sans-serif;" transform="matrix(1 0 0 1 263 726)">Small</text>
  <text style="stroke:none;fill:black;font-family:-apple-system,&quot;SF Pro Display&quot;,&quot;SF Pro Text&quot;,Helvetica,sans-serif;" transform="matrix(1 0 0 1 263 1156)">Medium</text>
  <text style="stroke:none;fill:black;font-family:-apple-system,&quot;SF Pro Display&quot;,&quot;SF Pro Text&quot;,Helvetica,sans-serif;" transform="matrix(1 0 0 1 263 1586)">Large</text>
 </g>
 <g id="Guides">
  <g id="H-reference" style="fill:#27AAE1;stroke:none;" transform="matrix(1 0 0 1 339 696)">
   <path d="M 54.9316 0 L 57.666 0 L 30.5664 -70.459 L 28.0762 -70.459 L 0.976562 0 L 3.66211 0 L 12.9395 -24.4629 L 45.7031 -24.4629 Z M 29.1992 -67.0898 L 29.4434 -67.0898 L 44.8242 -26.709 L 13.8184 -26.709 Z"/>
  </g>
  <line id="Baseline-S" style="fill:none;stroke:#27AAE1;opacity:1;stroke-width:0.577;" x1="263" x2="3036" y1="696" y2="696"/>
  <line id="Capline-S" style="fill:none;stroke:#27AAE1;opacity:1;stroke-width:0.577;" x1="263" x2="3036" y1="625.541" y2="625.541"/>
  <g id="H-reference" style="fill:#27AAE1;stroke:none;" transform="matrix(1 0 0 1 339 1126)">
   <path d="M 54.9316 0 L 57.666 0 L 30.5664 -70.459 L 28.0762 -70.459 L 0.976562 0 L 3.66211 0 L 12.9395 -24.4629 L 45.7031 -24.4629 Z M 29.1992 -67.0898 L 29.4434 -67.0898 L 44.8242 -26.709 L 13.8184 -26.709 Z"/>
  </g>
  <line id="Baseline-M" style="fill:none;stroke:#27AAE1;opacity:1;stroke-width:0.577;" x1="263" x2="3036" y1="1126" y2="1126"/>
  <line id="Capline-M" style="fill:none;stroke:#27AAE1;opacity:1;stroke-width:0.577;" x1="263" x2="3036" y1="1055.54" y2="1055.54"/>
  <g id="H-reference" style="fill:#27AAE1;stroke:none;" transform="matrix(1 0 0 1 339 1556)">
   <path d="M 54.9316 0 L 57.666 0 L 30.5664 -70.459 L 28.0762 -70.459 L 0.976562 0 L 3.66211 0 L 12.9395 -24.4629 L 45.7031 -24.4629 Z M 29.1992 -67.0898 L 29.4434 -67.0898 L 44.8242 -26.709 L 13.8184 -26.709 Z"/>
  </g>
  <line id="Baseline-L" style="fill:none;stroke:#27AAE1;opacity:1;stroke-width:0.577;" x1="263" x2="3036" y1="1556" y2="1556"/>
  <line id="Capline-L" style="fill:none;stroke:#27AAE1;opacity:1;stroke-width:0.577;" x1="263" x2="3036" y1="1485.54" y2="1485.54"/>
  <rect height="119.336" id="left-margin" style="fill:#00AEEF;stroke:none;opacity:0.4;" width="12.4512" x="1394.06" y="1030.79"/>
  <rect height="119.336" id="right-margin" style="fill:#00AEEF;stroke:none;opacity:0.4;" width="12.4512" x="1493.18" y="1030.79"/>
 </g>
 <g id="Symbols">
  <g id="Black-L" transform="matrix(1 0 0 1 2856.74 1556)">
   <path d="M 76.9043 -25.6836 C 81.8359 -25.6836 85.6934 -29.7363 85.6934 -34.375 L 85.6934 -91.9922 L 84.9121 -101.172 L 87.4023 -96.2891 L 93.7012 -89.5508 C 95.166 -87.9883 97.1191 -87.0605 99.3652 -87.0605 C 103.174 -87.0605 106.885 -89.9902 106.885 -94.2871 C 106.885 -96.4844 106.055 -98.0469 104.59 -99.5117 L 84.0332 -119.141 C 81.6895 -121.436 79.2969 -122.266 76.9043 -122.266 C 74.4629 -122.266 72.0703 -121.436 69.7266 -119.141 L 49.2188 -99.5117 C 47.7539 -98.0469 46.9238 -96.4844 46.9238 -94.2871 C 46.9238 -89.9902 50.5859 -87.0605 54.3945 -87.0605 C 56.6406 -87.0605 58.6426 -87.9883 60.1074 -89.5508 L 66.3574 -96.2891 L 68.8477 -101.172 L 68.0664 -91.9922 L 68.0664 -34.375 C 68.0664 -29.7363 71.9238 -25.6836 76.9043 -25.6836 Z M 39.9902 26.5137 L 113.33 26.5137 C 128.564 26.5137 137.207 17.8711 137.207 2.68555 L 137.207 -55.5176 C 137.207 -70.7031 128.564 -79.3457 113.33 -79.3457 L 97.998 -79.3457 L 97.998 -59.082 L 110.596 -59.082 C 114.844 -59.082 116.992 -57.1777 116.992 -52.6367 L 116.992 -0.146484 C 116.992 4.39453 114.844 6.29883 110.596 6.29883 L 42.7246 6.29883 C 38.4766 6.29883 36.3281 4.39453 36.3281 -0.146484 L 36.3281 -52.6367 C 36.3281 -57.1777 38.4766 -59.082 42.7246 -59.082 L 55.8105 -59.082 L 55.8105 -79.3457 L 39.9902 -79.3457 C 24.7559 -79.3457 16.0645 -70.7031 16.0645 -55.5176 L 16.0645 2.68555 C 16.0645 17.8711 24.7559 26.5137 39.9902 26.5137 Z"/>
  </g>
  <g id="Heavy-L" transform="matrix(1 0 0 1 2561.3 1556)">
   <path d="M 75.5859 -25.8789 C 79.9316 -25.8789 83.3008 -29.4434 83.3008 -33.5449 L 83.3008 -93.2617 L 82.666 -102.49 L 85.791 -97.4609 L 92.9688 -89.7949 C 94.2871 -88.4277 96.0449 -87.5977 97.998 -87.5977 C 101.465 -87.5977 104.639 -90.2344 104.639 -93.9941 C 104.639 -95.9473 103.906 -97.3633 102.588 -98.6816 L 81.7871 -118.701 C 79.7363 -120.703 77.6855 -121.387 75.5859 -121.387 C 73.4863 -121.387 71.4355 -120.703 69.3848 -118.701 L 48.5352 -98.6816 C 47.2168 -97.3633 46.4844 -95.9473 46.4844 -93.9941 C 46.4844 -90.2344 49.6582 -87.5977 53.125 -87.5977 C 55.0781 -87.5977 56.8848 -88.4277 58.1543 -89.7949 L 65.3809 -97.4609 L 68.5059 -102.49 L 67.8223 -93.2617 L 67.8223 -33.5449 C 67.8223 -29.4434 71.2402 -25.8789 75.5859 -25.8789 Z M 38.8184 25.4883 L 111.963 25.4883 C 126.611 25.4883 134.717 17.4316 134.717 2.88086 L 134.717 -56.3965 C 134.717 -70.8984 126.611 -79.0039 111.963 -79.0039 L 96.0449 -79.0039 L 96.0449 -61.5234 L 109.814 -61.5234 C 114.648 -61.5234 117.188 -59.2285 117.188 -54.1016 L 117.188 0.585938 C 117.188 5.71289 114.648 8.00781 109.814 8.00781 L 40.9668 8.00781 C 36.1328 8.00781 33.5938 5.71289 33.5938 0.585938 L 33.5938 -54.1016 C 33.5938 -59.2285 36.1328 -61.5234 40.9668 -61.5234 L 55.127 -61.5234 L 55.127 -79.0039 L 38.8184 -79.0039 C 24.2188 -79.0039 16.0645 -70.9473 16.0645 -56.3965 L 16.0645 2.88086 C 16.0645 17.4316 24.2188 25.4883 38.8184 25.4883 Z"/>
  </g>
  <g id="Bold-L" transform="matrix(1 0 0 1 2266 1556)">
   <path d="M 74.1211 -26.123 C 77.7344 -26.123 80.6641 -29.1016 80.6641 -32.5684 L 80.6641 -94.7266 L 80.127 -103.955 L 83.9355 -98.8281 L 92.1875 -90.0879 C 93.3105 -88.8672 94.873 -88.1836 96.4844 -88.1836 C 99.5117 -88.1836 102.197 -90.4785 102.197 -93.7012 C 102.197 -95.3613 101.562 -96.582 100.439 -97.7051 L 79.248 -118.164 C 77.5391 -119.873 75.8789 -120.459 74.1211 -120.459 C 72.3633 -120.459 70.7031 -119.873 68.9941 -118.164 L 47.8027 -97.7051 C 46.6309 -96.582 45.9961 -95.3613 45.9961 -93.7012 C 45.9961 -90.4785 48.6328 -88.1836 51.709 -88.1836 C 53.3203 -88.1836 54.9316 -88.8672 56.0059 -90.0879 L 64.3066 -98.8281 L 68.1152 -103.955 L 67.5781 -94.7266 L 67.5781 -32.5684 C 67.5781 -29.1016 70.459 -26.123 74.1211 -26.123 Z M 37.5488 24.3652 L 110.449 24.3652 C 124.365 24.3652 131.885 16.8945 131.885 3.07617 L 131.885 -57.3242 C 131.885 -71.1426 124.365 -78.6621 110.449 -78.6621 L 93.8477 -78.6621 L 93.8477 -64.209 L 108.984 -64.209 C 114.453 -64.209 117.432 -61.4746 117.432 -55.6641 L 117.432 1.41602 C 117.432 7.17773 114.453 9.91211 108.984 9.91211 L 38.9648 9.91211 C 33.4473 9.91211 30.5176 7.17773 30.5176 1.41602 L 30.5176 -55.6641 C 30.5176 -61.4746 33.4473 -64.209 38.9648 -64.209 L 54.3945 -64.209 L 54.3945 -78.6621 L 37.5488 -78.6621 C 23.6328 -78.6621 16.0645 -71.1914 16.0645 -57.3242 L 16.0645 3.07617 C 16.0645 16.8945 23.6328 24.3652 37.5488 24.3652 Z"/>
  </g>
  <g id="Semibold-L" transform="matrix(1 0 0 1 1970.27 1556)">
   <path d="M 73.0957 -26.2695 C 76.2695 -26.2695 78.8086 -28.8574 78.8086 -31.8848 L 78.8086 -95.7031 L 78.3691 -104.932 L 82.6172 -99.7559 L 91.6504 -90.2832 C 92.627 -89.209 94.043 -88.623 95.459 -88.623 C 98.1934 -88.623 100.488 -90.625 100.488 -93.5059 C 100.488 -94.9707 99.9512 -96.0449 98.9258 -97.0703 L 77.4902 -117.822 C 76.0254 -119.287 74.6094 -119.775 73.0957 -119.775 C 71.582 -119.775 70.166 -119.287 68.7012 -117.822 L 47.2656 -97.0703 C 46.2402 -96.0449 45.7031 -94.9707 45.7031 -93.5059 C 45.7031 -90.625 47.9492 -88.623 50.6836 -88.623 C 52.0996 -88.623 53.5645 -89.209 54.541 -90.2832 L 63.5254 -99.7559 L 67.8711 -104.98 L 67.3828 -95.7031 L 67.3828 -31.8848 C 67.3828 -28.8574 69.9219 -26.2695 73.0957 -26.2695 Z M 36.6699 23.584 L 109.375 23.584 C 122.852 23.584 129.932 16.5039 129.932 3.17383 L 129.932 -58.0078 C 129.932 -71.3379 122.852 -78.418 109.375 -78.418 L 92.334 -78.418 L 92.334 -66.0645 L 108.398 -66.0645 C 114.307 -66.0645 117.578 -62.9883 117.578 -56.7871 L 117.578 1.95312 C 117.578 8.20312 114.307 11.2793 108.398 11.2793 L 37.6465 11.2793 C 31.6406 11.2793 28.418 8.20312 28.418 1.95312 L 28.418 -56.7871 C 28.418 -62.9883 31.6406 -66.0645 37.6465 -66.0645 L 53.8574 -66.0645 L 53.8574 -78.418 L 36.6699 -78.418 C 23.2422 -78.418 16.0645 -71.3379 16.0645 -58.0078 L 16.0645 3.17383 C 16.0645 16.5527 23.2422 23.584 36.6699 23.584 Z"/>
  </g>
  <g id="Medium-L" transform="matrix(1 0 0 1 1674.29 1556)">
   <path d="M 72.3633 -26.416 C 75.1465 -26.416 77.4414 -28.7109 77.4414 -31.3965 L 77.4414 -96.4844 L 77.002 -105.713 L 81.6895 -100.488 L 91.2109 -90.4297 C 92.1387 -89.4531 93.4082 -88.916 94.6777 -88.916 C 97.168 -88.916 99.2188 -90.7715 99.2188 -93.3105 C 99.2188 -94.6777 98.6816 -95.6543 97.7539 -96.582 L 76.1719 -117.578 C 74.8535 -118.848 73.6816 -119.287 72.3633 -119.287 C 70.9961 -119.287 69.8242 -118.848 68.5059 -117.578 L 46.875 -96.582 C 45.9473 -95.6543 45.4102 -94.6777 45.4102 -93.3105 C 45.4102 -90.7715 47.4121 -88.916 49.9512 -88.916 C 51.2207 -88.916 52.5391 -89.4531 53.418 -90.4297 L 62.9883 -100.488 L 67.6758 -105.713 L 67.2363 -96.4844 L 67.2363 -31.3965 C 67.2363 -28.7109 69.5312 -26.416 72.3633 -26.416 Z M 35.9863 22.998 L 108.545 22.998 C 121.68 22.998 128.467 16.2109 128.467 3.27148 L 128.467 -58.4961 C 128.467 -71.4355 121.68 -78.2227 108.545 -78.2227 L 91.2109 -78.2227 L 91.2109 -67.4805 L 107.959 -67.4805 C 114.209 -67.4805 117.725 -64.209 117.725 -57.6172 L 117.725 2.39258 C 117.725 8.98438 114.209 12.2559 107.959 12.2559 L 36.6211 12.2559 C 30.2734 12.2559 26.8066 8.98438 26.8066 2.39258 L 26.8066 -57.6172 C 26.8066 -64.209 30.2734 -67.4805 36.6211 -67.4805 L 53.4668 -67.4805 L 53.4668 -78.2227 L 35.9863 -78.2227 C 22.9004 -78.2227 16.0645 -71.4844 16.0645 -58.4961 L 16.0645 3.27148 C 16.0645 16.2598 22.9004 22.998 35.9863 22.998 Z"/>
  </g>
  <g id="Regular-L" transform="matrix(1 0 0 1 1378.53 1556)">
   <path d="M 71.3379 -26.5625 C 73.6816 -26.5625 75.6348 -28.4668 75.6348 -30.7617 L 75.6348 -97.4609 L 75.293 -106.689 L 80.4199 -101.416 L 90.6738 -90.625 C 91.4551 -89.7461 92.5781 -89.3066 93.6035 -89.3066 C 95.8496 -89.3066 97.5586 -90.918 97.5586 -93.1152 C 97.5586 -94.2383 97.0703 -95.1172 96.2891 -95.9473 L 74.4629 -117.188 C 73.3887 -118.262 72.4121 -118.652 71.3379 -118.652 C 70.2637 -118.652 69.2871 -118.262 68.2617 -117.188 L 46.3867 -95.9473 C 45.5566 -95.1172 45.1172 -94.2383 45.1172 -93.1152 C 45.1172 -90.918 46.7285 -89.3066 48.9746 -89.3066 C 50 -89.3066 51.1719 -89.7461 51.9531 -90.625 L 62.2559 -101.416 L 67.3828 -106.738 L 67.041 -97.4609 L 67.041 -30.7617 C 67.041 -28.4668 69.043 -26.5625 71.3379 -26.5625 Z M 35.1074 22.2168 L 107.52 22.2168 C 120.166 22.2168 126.514 15.8691 126.514 3.41797 L 126.514 -59.1797 C 126.514 -71.582 120.166 -77.9785 107.52 -77.9785 L 89.7461 -77.9785 L 89.7461 -69.3359 L 107.373 -69.3359 C 114.062 -69.3359 117.871 -65.7227 117.871 -58.7402 L 117.871 2.97852 C 117.871 9.96094 114.062 13.5742 107.373 13.5742 L 35.2539 13.5742 C 28.4668 13.5742 24.7559 9.96094 24.7559 2.97852 L 24.7559 -58.7402 C 24.7559 -65.7227 28.4668 -69.3359 35.2539 -69.3359 L 52.9785 -69.3359 L 52.9785 -77.9785 L 35.1074 -77.9785 C 22.5098 -77.9785 16.0645 -71.6797 16.0645 -59.1797 L 16.0645 3.41797 C 16.0645 15.918 22.5098 22.2168 35.1074 22.2168 Z"/>
  </g>
  <g id="Light-L" transform="matrix(1 0 0 1 1082.75 1556)">
   <path d="M 70.459 -26.6602 C 72.2168 -26.6602 73.7305 -28.125 73.7305 -29.8828 L 73.7305 -99.2676 L 73.4863 -108.301 L 79.7852 -101.855 L 91.0645 -90.2344 C 91.6504 -89.5996 92.5293 -89.209 93.3594 -89.209 C 95.0195 -89.209 96.3379 -90.5273 96.3379 -92.1875 C 96.3379 -93.0176 95.9961 -93.7012 95.3613 -94.3359 L 72.8027 -116.602 C 72.0215 -117.383 71.2891 -117.627 70.459 -117.627 C 69.5801 -117.627 68.8477 -117.383 68.0664 -116.602 L 45.459 -94.3359 C 44.8242 -93.7012 44.4824 -93.0176 44.4824 -92.1875 C 44.4824 -90.5273 45.752 -89.209 47.4609 -89.209 C 48.2422 -89.209 49.1699 -89.5996 49.7559 -90.2344 L 61.0352 -101.855 L 67.3828 -108.35 L 67.1387 -99.2676 L 67.1387 -29.8828 C 67.1387 -28.125 68.6523 -26.6602 70.459 -26.6602 Z M 34.082 21.4355 L 106.689 21.4355 C 118.604 21.4355 124.707 15.2344 124.707 3.56445 L 124.707 -59.6191 C 124.707 -71.2891 118.604 -77.4902 106.689 -77.4902 L 88.5742 -77.4902 L 88.5742 -70.8496 L 106.543 -70.8496 C 113.867 -70.8496 118.066 -66.8945 118.066 -59.2773 L 118.066 3.22266 C 118.066 10.8398 113.867 14.7949 106.543 14.7949 L 34.2285 14.7949 C 26.709 14.7949 22.7051 10.8398 22.7051 3.22266 L 22.7051 -59.2773 C 22.7051 -66.8945 26.709 -70.8496 34.2285 -70.8496 L 52.2949 -70.8496 L 52.2949 -77.4902 L 34.082 -77.4902 C 22.2168 -77.4902 16.0645 -71.3867 16.0645 -59.6191 L 16.0645 3.56445 C 16.0645 15.3809 22.2168 21.4355 34.082 21.4355 Z"/>
  </g>
  <g id="Thin-L" transform="matrix(1 0 0 1 787.257 1556)">
   <path d="M 69.2383 -26.8066 C 70.3125 -26.8066 71.1914 -27.6855 71.1914 -28.7598 L 71.1914 -101.709 L 71.0938 -110.4 L 78.9551 -102.441 L 91.5527 -89.7461 C 91.9434 -89.3555 92.4805 -89.1113 92.9688 -89.1113 C 93.8965 -89.1113 94.7754 -89.9414 94.7754 -90.918 C 94.7754 -91.4062 94.5312 -91.7969 94.1895 -92.1875 L 70.6055 -115.771 C 70.2148 -116.162 69.7266 -116.357 69.2383 -116.357 C 68.75 -116.357 68.2617 -116.162 67.8711 -115.771 L 44.2383 -92.1875 C 43.8477 -91.7969 43.6523 -91.4062 43.6523 -90.918 C 43.6523 -89.9414 44.4336 -89.1113 45.4102 -89.1113 C 45.8984 -89.1113 46.4844 -89.3555 46.875 -89.7461 L 59.4727 -102.441 L 67.3828 -110.449 L 67.2852 -101.709 L 67.2852 -28.7598 C 67.2852 -27.6855 68.1641 -26.8066 69.2383 -26.8066 Z M 32.7148 20.3613 L 105.615 20.3613 C 116.504 20.3613 122.266 14.4531 122.266 3.75977 L 122.266 -60.2051 C 122.266 -70.8984 116.504 -76.8066 105.615 -76.8066 L 87.0117 -76.8066 L 87.0117 -72.8516 L 105.469 -72.8516 C 113.623 -72.8516 118.311 -68.457 118.311 -60.0098 L 118.311 3.56445 C 118.311 12.0117 113.623 16.4062 105.469 16.4062 L 32.8613 16.4062 C 24.4141 16.4062 20.0195 12.0117 20.0195 3.56445 L 20.0195 -60.0098 C 20.0195 -68.457 24.4141 -72.8516 32.8613 -72.8516 L 51.4648 -72.8516 L 51.4648 -76.8066 L 32.7148 -76.8066 C 21.8262 -76.8066 16.0645 -71.0449 16.0645 -60.2051 L 16.0645 3.75977 C 16.0645 14.6484 21.8262 20.3613 32.7148 20.3613 Z"/>
  </g>
  <g id="Ultralight-L" transform="matrix(1 0 0 1 491.181 1556)">
   <path d="M 68.6035 -26.8555 C 69.3359 -26.8555 69.9219 -27.4414 69.9219 -28.1738 L 69.9219 -102.93 L 69.873 -111.475 L 78.5156 -102.734 L 91.7969 -89.502 C 92.0898 -89.2578 92.4805 -89.0625 92.7734 -89.0625 C 93.3594 -89.0625 93.9453 -89.6484 93.9453 -90.2832 C 93.9453 -90.625 93.7988 -90.8691 93.5547 -91.1133 L 69.5312 -115.332 C 69.2871 -115.576 68.9453 -115.674 68.6035 -115.674 C 68.3105 -115.674 67.9688 -115.576 67.7246 -115.332 L 43.6035 -91.1133 C 43.3594 -90.8691 43.2129 -90.625 43.2129 -90.2832 C 43.2129 -89.6484 43.75 -89.0625 44.3848 -89.0625 C 44.6777 -89.0625 45.1172 -89.2578 45.3613 -89.502 L 58.6426 -102.734 L 67.3828 -111.572 L 67.334 -102.93 L 67.334 -28.1738 C 67.334 -27.4414 67.9199 -26.8555 68.6035 -26.8555 Z M 31.9824 19.7754 L 105.078 19.7754 C 115.43 19.7754 120.996 14.0625 120.996 3.85742 L 120.996 -60.498 C 120.996 -70.7031 115.43 -76.416 105.078 -76.416 L 86.2305 -76.416 L 86.2305 -73.877 L 104.932 -73.877 C 113.477 -73.877 118.457 -69.2871 118.457 -60.4004 L 118.457 3.75977 C 118.457 12.6465 113.477 17.2363 104.932 17.2363 L 32.1289 17.2363 C 23.2422 17.2363 18.6523 12.6465 18.6523 3.75977 L 18.6523 -60.4004 C 18.6523 -69.2871 23.2422 -73.877 32.1289 -73.877 L 51.0254 -73.877 L 51.0254 -76.416 L 31.9824 -76.416 C 21.6309 -76.416 16.0645 -70.8984 16.0645 -60.498 L 16.0645 3.85742 C 16.0645 14.2578 21.6309 19.7754 31.9824 19.7754 Z"/>
  </g>
  <g id="Black-M" transform="matrix(1 0 0 1 2872.78 1126)">
   <path d="M 60.8887 -27.5879 C 65.2832 -27.5879 68.6035 -31.1523 68.6035 -35.2539 L 68.6035 -78.4668 L 67.9199 -85.4004 L 69.6289 -81.1523 L 73.7793 -76.8066 C 75 -75.4883 76.709 -74.6582 78.6621 -74.6582 C 81.8848 -74.6582 85.1562 -77.1484 85.1562 -80.8594 C 85.1562 -82.7637 84.4727 -84.082 83.2031 -85.3516 L 67.2852 -100.537 C 65.2344 -102.539 63.0371 -103.32 60.8887 -103.32 C 58.7402 -103.32 56.543 -102.539 54.4434 -100.537 L 38.5742 -85.3516 C 37.3047 -84.082 36.6211 -82.7637 36.6211 -80.8594 C 36.6211 -77.1484 39.8926 -74.6582 43.0664 -74.6582 C 45.0195 -74.6582 46.7285 -75.4883 47.998 -76.8066 L 52.0996 -81.1523 L 53.8086 -85.4004 L 53.125 -78.4668 L 53.125 -35.2539 C 53.125 -31.1523 56.4453 -27.5879 60.8887 -27.5879 Z M 31.9824 13.5742 L 89.2578 13.5742 C 101.514 13.5742 108.789 6.29883 108.789 -5.95703 L 108.789 -50 C 108.789 -62.2559 101.514 -69.5312 89.2578 -69.5312 L 77.9297 -69.5312 L 77.9297 -51.2695 L 86.3281 -51.2695 C 89.1602 -51.2695 90.4785 -50.1953 90.4785 -47.0703 L 90.4785 -8.88672 C 90.4785 -5.81055 89.1602 -4.73633 86.3281 -4.73633 L 34.9121 -4.73633 C 32.0801 -4.73633 30.7617 -5.81055 30.7617 -8.88672 L 30.7617 -47.0703 C 30.7617 -50.1953 32.0801 -51.2695 34.9121 -51.2695 L 43.7988 -51.2695 L 43.7988 -69.5312 L 31.9824 -69.5312 C 19.7266 -69.5312 12.4512 -62.2559 12.4512 -50 L 12.4512 -5.95703 C 12.4512 6.29883 19.7266 13.5742 31.9824 13.5742 Z"/>
  </g>
  <g id="Heavy-M" transform="matrix(1 0 0 1 2577.22 1126)">
   <path d="M 59.668 -27.7832 C 63.5254 -27.7832 66.5039 -30.957 66.5039 -34.5703 L 66.5039 -79.3945 L 65.918 -86.4258 L 68.0176 -82.3242 L 72.9004 -77.1484 C 74.0234 -75.9766 75.5371 -75.2441 77.2461 -75.2441 C 80.1758 -75.2441 83.0566 -77.4902 83.0566 -80.8105 C 83.0566 -82.5195 82.4219 -83.6914 81.2988 -84.8145 L 65.2344 -100.195 C 63.4277 -101.953 61.5234 -102.637 59.668 -102.637 C 57.8125 -102.637 55.9082 -101.953 54.1016 -100.195 L 38.0371 -84.8145 C 36.9141 -83.6914 36.2793 -82.5195 36.2793 -80.8105 C 36.2793 -77.4902 39.1602 -75.2441 42.0898 -75.2441 C 43.7988 -75.2441 45.3125 -75.9766 46.4355 -77.1484 L 51.3672 -82.3242 L 53.4668 -86.4258 L 52.832 -79.3945 L 52.832 -34.5703 C 52.832 -30.957 55.8105 -27.7832 59.668 -27.7832 Z M 31.0059 12.6465 L 87.9395 12.6465 C 99.707 12.6465 106.494 5.9082 106.494 -5.81055 L 106.494 -50.8301 C 106.494 -62.5977 99.707 -69.3359 87.9395 -69.3359 L 76.123 -69.3359 L 76.123 -53.5156 L 85.6934 -53.5156 C 88.9648 -53.5156 90.6738 -52.0508 90.6738 -48.5352 L 90.6738 -8.1543 C 90.6738 -4.63867 88.9648 -3.17383 85.6934 -3.17383 L 33.252 -3.17383 C 29.9805 -3.17383 28.2715 -4.63867 28.2715 -8.1543 L 28.2715 -48.5352 C 28.2715 -52.0508 29.9805 -53.5156 33.252 -53.5156 L 43.2129 -53.5156 L 43.2129 -69.3359 L 31.0059 -69.3359 C 19.2383 -69.3359 12.4512 -62.5977 12.4512 -50.8301 L 12.4512 -5.81055 C 12.4512 5.9082 19.2383 12.6465 31.0059 12.6465 Z"/>
  </g>
  <g id="Bold-M" transform="matrix(1 0 0 1 2281.77 1126)">
   <path d="M 58.3496 -28.0273 C 61.5723 -28.0273 64.1602 -30.6641 64.1602 -33.7402 L 64.1602 -80.4199 L 63.6719 -87.5488 L 66.1621 -83.6914 L 71.9238 -77.5879 C 72.9004 -76.5137 74.2188 -75.9277 75.6836 -75.9277 C 78.3203 -75.9277 80.7129 -77.8809 80.7129 -80.7617 C 80.7129 -82.2266 80.1758 -83.252 79.1504 -84.2773 L 62.9883 -99.8047 C 61.4258 -101.318 59.9121 -101.855 58.3496 -101.855 C 56.7871 -101.855 55.2246 -101.318 53.7109 -99.8047 L 37.5 -84.2773 C 36.5234 -83.252 35.9375 -82.2266 35.9375 -80.7617 C 35.9375 -77.8809 38.3301 -75.9277 40.9668 -75.9277 C 42.3828 -75.9277 43.7988 -76.5137 44.7266 -77.5879 L 50.4883 -83.6914 L 53.0273 -87.5488 L 52.5391 -80.4199 L 52.5391 -33.7402 C 52.5391 -30.6641 55.0781 -28.0273 58.3496 -28.0273 Z M 29.8828 11.6699 L 86.5234 11.6699 C 97.7539 11.6699 103.955 5.46875 103.955 -5.66406 L 103.955 -51.7578 C 103.955 -62.9395 97.7539 -69.0918 86.5234 -69.0918 L 74.0723 -69.0918 L 74.0723 -56.0547 L 85.0098 -56.0547 C 88.8184 -56.0547 90.8691 -54.1992 90.8691 -50.0977 L 90.8691 -7.32422 C 90.8691 -3.27148 88.8184 -1.41602 85.0098 -1.41602 L 31.3965 -1.41602 C 27.5879 -1.41602 25.5371 -3.27148 25.5371 -7.32422 L 25.5371 -50.0977 C 25.5371 -54.1992 27.5879 -56.0547 31.3965 -56.0547 L 42.627 -56.0547 L 42.627 -69.0918 L 29.8828 -69.0918 C 18.6523 -69.0918 12.4512 -62.9395 12.4512 -51.7578 L 12.4512 -5.66406 C 12.4512 5.51758 18.6523 11.6699 29.8828 11.6699 Z"/>
  </g>
  <g id="Semibold-M" transform="matrix(1 0 0 1 1985.94 1126)">
   <path d="M 57.4219 -28.1738 C 60.2539 -28.1738 62.5 -30.5176 62.5 -33.2031 L 62.5 -81.1523 L 62.1094 -88.3301 L 64.8926 -84.6191 L 71.2402 -77.8809 C 72.1191 -76.9043 73.3398 -76.3672 74.6094 -76.3672 C 77.002 -76.3672 79.1016 -78.1738 79.1016 -80.7129 C 79.1016 -82.0312 78.6133 -82.959 77.6855 -83.8867 L 61.377 -99.5605 C 60.0586 -100.879 58.7891 -101.318 57.4219 -101.318 C 56.0547 -101.318 54.7852 -100.879 53.4668 -99.5605 L 37.1094 -83.8867 C 36.2305 -82.959 35.7422 -82.0312 35.7422 -80.7129 C 35.7422 -78.1738 37.793 -76.3672 40.1855 -76.3672 C 41.4551 -76.3672 42.7246 -76.9043 43.5547 -77.8809 L 49.9512 -84.6191 L 52.7344 -88.3789 L 52.2949 -81.1523 L 52.2949 -33.2031 C 52.2949 -30.5176 54.5898 -28.1738 57.4219 -28.1738 Z M 29.1016 10.9863 L 85.5469 10.9863 C 96.3867 10.9863 102.197 5.17578 102.197 -5.56641 L 102.197 -52.3926 C 102.197 -63.1836 96.3867 -68.9453 85.5469 -68.9453 L 72.6562 -68.9453 L 72.6562 -57.7637 L 84.5215 -57.7637 C 88.6719 -57.7637 91.0156 -55.6641 91.0156 -51.2207 L 91.0156 -6.78711 C 91.0156 -2.34375 88.6719 -0.195312 84.5215 -0.195312 L 30.127 -0.195312 C 25.9277 -0.195312 23.6328 -2.34375 23.6328 -6.78711 L 23.6328 -51.2207 C 23.6328 -55.6641 25.9277 -57.7637 30.127 -57.7637 L 42.1875 -57.7637 L 42.1875 -68.9453 L 29.1016 -68.9453 C 18.3105 -68.9453 12.4512 -63.1836 12.4512 -52.3926 L 12.4512 -5.56641 C 12.4512 5.22461 18.3105 10.9863 29.1016 10.9863 Z"/>
  </g>
  <g id="Medium-M" transform="matrix(1 0 0 1 1689.89 1126)">
   <path d="M 56.7383 -28.3203 C 59.2285 -28.3203 61.2793 -30.3711 61.2793 -32.8125 L 61.2793 -81.6895 L 60.9375 -88.916 L 63.916 -85.3516 L 70.752 -78.0762 C 71.5332 -77.1973 72.6562 -76.7578 73.7793 -76.7578 C 76.0254 -76.7578 77.8809 -78.3691 77.8809 -80.6641 C 77.8809 -81.8848 77.3926 -82.7637 76.5625 -83.5938 L 60.2051 -99.3652 C 59.0332 -100.537 57.9102 -100.928 56.7383 -100.928 C 55.5176 -100.928 54.4434 -100.537 53.2227 -99.3652 L 36.8652 -83.5938 C 36.0352 -82.7637 35.5469 -81.8848 35.5469 -80.6641 C 35.5469 -78.3691 37.3535 -76.7578 39.5996 -76.7578 C 40.7227 -76.7578 41.8945 -77.1973 42.6758 -78.0762 L 49.5117 -85.3516 L 52.5391 -88.9648 L 52.1484 -81.6895 L 52.1484 -32.8125 C 52.1484 -30.3711 54.1992 -28.3203 56.7383 -28.3203 Z M 28.5645 10.4492 L 84.7656 10.4492 C 95.3613 10.4492 100.83 4.98047 100.83 -5.46875 L 100.83 -52.8809 C 100.83 -63.3301 95.3613 -68.7988 84.7656 -68.7988 L 71.582 -68.7988 L 71.582 -59.082 L 84.1309 -59.082 C 88.623 -59.082 91.1133 -56.7383 91.1133 -52.0508 L 91.1133 -6.34766 C 91.1133 -1.61133 88.623 0.732422 84.1309 0.732422 L 29.1504 0.732422 C 24.6582 0.732422 22.2168 -1.61133 22.2168 -6.34766 L 22.2168 -52.0508 C 22.2168 -56.7383 24.6582 -59.082 29.1504 -59.082 L 41.8457 -59.082 L 41.8457 -68.7988 L 28.5645 -68.7988 C 17.9688 -68.7988 12.4512 -63.3789 12.4512 -52.8809 L 12.4512 -5.46875 C 12.4512 4.98047 17.9688 10.4492 28.5645 10.4492 Z"/>
  </g>
  <g id="Regular-M" transform="matrix(1 0 0 1 1394.06 1126)">
   <path d="M 55.8105 -28.4668 C 57.9102 -28.4668 59.668 -30.2246 59.668 -32.2754 L 59.668 -82.4219 L 59.375 -89.6973 L 62.6953 -86.2305 L 70.0684 -78.3691 C 70.752 -77.5879 71.7773 -77.1973 72.7051 -77.1973 C 74.7559 -77.1973 76.2695 -78.6621 76.2695 -80.6152 C 76.2695 -81.6895 75.8789 -82.4707 75.1465 -83.2031 L 58.6426 -99.1211 C 57.666 -100.098 56.7871 -100.439 55.8105 -100.439 C 54.7852 -100.439 53.9551 -100.098 52.9785 -99.1211 L 36.4746 -83.2031 C 35.7422 -82.4707 35.3027 -81.6895 35.3027 -80.6152 C 35.3027 -78.6621 36.7676 -77.1973 38.8184 -77.1973 C 39.7949 -77.1973 40.8203 -77.5879 41.5039 -78.3691 L 48.9258 -86.2305 L 52.2461 -89.7461 L 51.9043 -82.4219 L 51.9043 -32.2754 C 51.9043 -30.2246 53.7109 -28.4668 55.8105 -28.4668 Z M 27.7832 9.76562 L 83.7891 9.76562 C 94.043 9.76562 99.1211 4.6875 99.1211 -5.37109 L 99.1211 -53.5156 C 99.1211 -63.5742 94.043 -68.6523 83.7891 -68.6523 L 70.2148 -68.6523 L 70.2148 -60.791 L 83.6914 -60.791 C 88.4766 -60.791 91.2598 -58.2031 91.2598 -53.125 L 91.2598 -5.76172 C 91.2598 -0.683594 88.4766 1.9043 83.6914 1.9043 L 27.9297 1.9043 C 23.0469 1.9043 20.3125 -0.683594 20.3125 -5.76172 L 20.3125 -53.125 C 20.3125 -58.2031 23.0469 -60.791 27.9297 -60.791 L 41.4062 -60.791 L 41.4062 -68.6523 L 27.7832 -68.6523 C 17.627 -68.6523 12.4512 -63.623 12.4512 -53.5156 L 12.4512 -5.37109 C 12.4512 4.73633 17.627 9.76562 27.7832 9.76562 Z"/>
  </g>
  <g id="Light-M" transform="matrix(1 0 0 1 1098.18 1126)">
   <path d="M 54.9805 -28.5645 C 56.5918 -28.5645 57.959 -29.8828 57.959 -31.4941 L 57.959 -84.0332 L 57.7637 -91.1133 L 62.1094 -86.6699 L 70.4102 -78.0273 C 70.9473 -77.4414 71.7285 -77.0996 72.4609 -77.0996 C 73.9746 -77.0996 75.1953 -78.2715 75.1953 -79.7852 C 75.1953 -80.5664 74.9023 -81.2012 74.3164 -81.7383 L 57.1289 -98.5352 C 56.3965 -99.2676 55.7617 -99.5605 54.9805 -99.5605 C 54.248 -99.5605 53.5645 -99.2676 52.832 -98.5352 L 35.6445 -81.7383 C 35.0586 -81.2012 34.7656 -80.5664 34.7656 -79.7852 C 34.7656 -78.2715 35.8887 -77.0996 37.4512 -77.0996 C 38.1836 -77.0996 39.0137 -77.4414 39.5508 -78.0273 L 47.8516 -86.6699 L 52.2461 -91.1621 L 52.002 -84.0332 L 52.002 -31.4941 C 52.002 -29.8828 53.3691 -28.5645 54.9805 -28.5645 Z M 26.8555 9.0332 L 83.0566 9.0332 C 92.627 9.0332 97.4609 4.15039 97.4609 -5.22461 L 97.4609 -53.9551 C 97.4609 -63.3301 92.627 -68.2129 83.0566 -68.2129 L 69.1406 -68.2129 L 69.1406 -62.1582 L 82.959 -62.1582 C 88.3301 -62.1582 91.4062 -59.2285 91.4062 -53.6133 L 91.4062 -5.56641 C 91.4062 0.0976562 88.3301 2.97852 82.959 2.97852 L 27.002 2.97852 C 21.4844 2.97852 18.5059 0.0976562 18.5059 -5.56641 L 18.5059 -53.6133 C 18.5059 -59.2285 21.4844 -62.1582 27.002 -62.1582 L 40.8203 -62.1582 L 40.8203 -68.2129 L 26.8555 -68.2129 C 17.334 -68.2129 12.4512 -63.3789 12.4512 -53.9551 L 12.4512 -5.22461 C 12.4512 4.19922 17.334 9.0332 26.8555 9.0332 Z"/>
  </g>
  <g id="Thin-M" transform="matrix(1 0 0 1 802.565 1126)">
   <path d="M 53.9062 -28.6621 C 54.8828 -28.6621 55.7129 -29.4922 55.7129 -30.4688 L 55.7129 -86.2305 L 55.6152 -93.0176 L 61.377 -87.1582 L 70.8496 -77.5879 C 71.1914 -77.2461 71.6797 -77.002 72.1191 -77.002 C 72.998 -77.002 73.7793 -77.7344 73.7793 -78.6621 C 73.7793 -79.1504 73.584 -79.4922 73.2422 -79.834 L 55.2246 -97.8027 C 54.7852 -98.1934 54.3945 -98.3887 53.9062 -98.3887 C 53.4668 -98.3887 53.0273 -98.1934 52.6367 -97.8027 L 34.5215 -79.834 C 34.1797 -79.4922 33.9844 -79.1504 33.9844 -78.6621 C 33.9844 -77.7344 34.7168 -77.002 35.6445 -77.002 C 36.084 -77.002 36.6211 -77.2461 36.9629 -77.5879 L 46.4355 -87.1582 L 52.2461 -93.0664 L 52.0996 -86.2305 L 52.0996 -30.4688 C 52.0996 -29.4922 52.9297 -28.6621 53.9062 -28.6621 Z M 25.6348 8.05664 L 82.0801 8.05664 C 90.7715 8.05664 95.2637 3.4668 95.2637 -5.0293 L 95.2637 -54.4434 C 95.2637 -62.9883 90.7715 -67.5781 82.0801 -67.5781 L 67.7734 -67.5781 L 67.7734 -63.9648 L 81.9824 -63.9648 C 88.0859 -63.9648 91.6504 -60.6445 91.6504 -54.248 L 91.6504 -5.22461 C 91.6504 1.12305 88.0859 4.44336 81.9824 4.44336 L 25.7324 4.44336 C 19.4336 4.44336 16.1133 1.12305 16.1133 -5.22461 L 16.1133 -54.248 C 16.1133 -60.6445 19.4336 -63.9648 25.7324 -63.9648 L 40.0391 -63.9648 L 40.0391 -67.5781 L 25.6348 -67.5781 C 16.9922 -67.5781 12.4512 -63.0859 12.4512 -54.4434 L 12.4512 -5.0293 C 12.4512 3.56445 16.9922 8.05664 25.6348 8.05664 Z"/>
  </g>
  <g id="Ultralight-M" transform="matrix(1 0 0 1 506.415 1126)">
   <path d="M 53.3691 -28.7109 C 54.0039 -28.7109 54.541 -29.248 54.541 -29.9316 L 54.541 -87.3535 L 54.4922 -93.9941 L 60.9863 -87.4512 L 71.0449 -77.3926 C 71.2891 -77.1484 71.6797 -76.9531 71.9727 -76.9531 C 72.5098 -76.9531 73.0469 -77.4902 73.0469 -78.0762 C 73.0469 -78.3691 72.9492 -78.6133 72.7051 -78.8574 L 54.1992 -97.4121 C 53.9551 -97.6562 53.6621 -97.8027 53.3691 -97.8027 C 53.0762 -97.8027 52.7832 -97.6562 52.5391 -97.4121 L 33.9844 -78.8574 C 33.7402 -78.6133 33.6426 -78.3691 33.6426 -78.0762 C 33.6426 -77.4902 34.082 -76.9531 34.7168 -76.9531 C 35.0098 -76.9531 35.3516 -77.1484 35.5957 -77.3926 L 45.7031 -87.4512 L 52.2461 -94.043 L 52.1484 -87.3535 L 52.1484 -29.9316 C 52.1484 -29.248 52.6855 -28.7109 53.3691 -28.7109 Z M 25 7.56836 L 81.5918 7.56836 C 89.7949 7.56836 94.1406 3.125 94.1406 -4.98047 L 94.1406 -54.7363 C 94.1406 -62.793 89.7949 -67.2852 81.5918 -67.2852 L 67.0898 -67.2852 L 67.0898 -64.8926 L 81.4941 -64.8926 C 87.9883 -64.8926 91.748 -61.377 91.748 -54.5898 L 91.748 -5.07812 C 91.748 1.66016 87.9883 5.17578 81.4941 5.17578 L 25.1465 5.17578 C 18.3594 5.17578 14.8438 1.66016 14.8438 -5.07812 L 14.8438 -54.5898 C 14.8438 -61.377 18.3594 -64.8926 25.1465 -64.8926 L 39.6484 -64.8926 L 39.6484 -67.2852 L 25 -67.2852 C 16.7969 -67.2852 12.4512 -62.9395 12.4512 -54.7363 L 12.4512 -4.98047 C 12.4512 3.22266 16.7969 7.56836 25 7.56836 Z"/>
  </g>
  <g id="Black-S" transform="matrix(1 0 0 1 2885.99 696)">
   <path d="M 47.6074 -29.248 C 51.0254 -29.248 53.6133 -32.0312 53.6133 -35.2051 L 53.6133 -69.1406 L 53.0762 -74.6094 L 54.4434 -71.2891 L 57.7148 -67.8223 C 58.6914 -66.7969 60.0098 -66.1621 61.5234 -66.1621 C 64.0137 -66.1621 66.5527 -68.1152 66.5527 -70.9961 C 66.5527 -72.4609 66.0156 -73.4863 65.0391 -74.4629 L 52.5879 -86.377 C 50.9766 -87.9395 49.2676 -88.5254 47.6074 -88.5254 C 45.9473 -88.5254 44.2383 -87.9395 42.627 -86.377 L 30.1758 -74.4629 C 29.1992 -73.4863 28.6621 -72.4609 28.6621 -70.9961 C 28.6621 -68.1152 31.2012 -66.1621 33.6914 -66.1621 C 35.2051 -66.1621 36.5234 -66.7969 37.5 -67.8223 L 40.7715 -71.2891 L 42.1387 -74.6094 L 41.6016 -69.1406 L 41.6016 -35.2051 C 41.6016 -32.0312 44.1895 -29.248 47.6074 -29.248 Z M 25 2.92969 L 69.8242 2.92969 C 79.3945 2.92969 85.0586 -2.73438 85.0586 -12.3047 L 85.0586 -46.875 C 85.0586 -56.4453 79.3945 -62.1094 69.8242 -62.1094 L 60.9375 -62.1094 L 60.9375 -47.9492 L 67.5781 -47.9492 C 69.8242 -47.9492 70.8984 -47.0703 70.8984 -44.6289 L 70.8984 -14.5508 C 70.8984 -12.1094 69.8242 -11.2305 67.5781 -11.2305 L 27.2461 -11.2305 C 25 -11.2305 23.9258 -12.1094 23.9258 -14.5508 L 23.9258 -44.6289 C 23.9258 -47.0703 25 -47.9492 27.2461 -47.9492 L 34.2773 -47.9492 L 34.2773 -62.1094 L 25 -62.1094 C 15.4297 -62.1094 9.76562 -56.4453 9.76562 -46.875 L 9.76562 -12.3047 C 9.76562 -2.73438 15.4297 2.92969 25 2.92969 Z"/>
  </g>
  <g id="Heavy-S" transform="matrix(1 0 0 1 2590.06 696)">
   <path d="M 46.7773 -29.3945 C 49.8535 -29.3945 52.1973 -31.8848 52.1973 -34.7656 L 52.1973 -69.6777 L 51.709 -75.2441 L 53.2715 -72.168 L 57.0312 -68.1641 C 57.9102 -67.1875 59.1309 -66.6504 60.498 -66.6504 C 62.793 -66.6504 65.0879 -68.4082 65.0879 -71.0449 C 65.0879 -72.3633 64.5508 -73.3398 63.6719 -74.2188 L 51.1719 -86.1816 C 49.7559 -87.5977 48.2422 -88.0859 46.7773 -88.0859 C 45.3125 -88.0859 43.7988 -87.5977 42.3828 -86.1816 L 29.8828 -74.2188 C 29.0039 -73.3398 28.5156 -72.3633 28.5156 -71.0449 C 28.5156 -68.4082 30.7617 -66.6504 33.0566 -66.6504 C 34.4238 -66.6504 35.6445 -67.1875 36.5723 -68.1641 L 40.332 -72.168 L 41.8457 -75.2441 L 41.3574 -69.6777 L 41.3574 -34.7656 C 41.3574 -31.8848 43.75 -29.3945 46.7773 -29.3945 Z M 24.3652 2.34375 L 68.9453 2.34375 C 78.2227 2.34375 83.4961 -2.97852 83.4961 -12.207 L 83.4961 -47.4609 C 83.4961 -56.6895 78.2227 -62.0117 68.9453 -62.0117 L 59.668 -62.0117 L 59.668 -49.5117 L 67.1875 -49.5117 C 69.7266 -49.5117 70.9961 -48.3887 70.9961 -45.6543 L 70.9961 -14.0137 C 70.9961 -11.2793 69.7266 -10.1562 67.1875 -10.1562 L 26.0742 -10.1562 C 23.5352 -10.1562 22.2656 -11.2793 22.2656 -14.0137 L 22.2656 -45.6543 C 22.2656 -48.3887 23.5352 -49.5117 26.0742 -49.5117 L 33.8867 -49.5117 L 33.8867 -62.0117 L 24.3652 -62.0117 C 15.0879 -62.0117 9.76562 -56.6895 9.76562 -47.4609 L 9.76562 -12.207 C 9.76562 -2.97852 15.0879 2.34375 24.3652 2.34375 Z"/>
  </g>
  <g id="Bold-S" transform="matrix(1 0 0 1 2294.23 696)">
   <path d="M 45.8496 -29.5898 C 48.4863 -29.5898 50.5859 -31.7383 50.5859 -34.2285 L 50.5859 -70.2637 L 50.1953 -75.9277 L 51.9043 -73.1445 L 56.25 -68.5059 C 57.0312 -67.627 58.1055 -67.1387 59.3262 -67.1387 C 61.4746 -67.1387 63.4277 -68.75 63.4277 -71.0938 C 63.4277 -72.3145 62.9395 -73.1445 62.1582 -73.9746 L 49.6094 -85.9863 C 48.3887 -87.207 47.1191 -87.6465 45.8496 -87.6465 C 44.5801 -87.6465 43.3594 -87.207 42.0898 -85.9863 L 29.5898 -73.9746 C 28.7598 -73.1445 28.3203 -72.3145 28.3203 -71.0938 C 28.3203 -68.75 30.2246 -67.1387 32.373 -67.1387 C 33.5449 -67.1387 34.7168 -67.627 35.498 -68.5059 L 39.7949 -73.1445 L 41.5527 -75.9277 L 41.1133 -70.2637 L 41.1133 -34.2285 C 41.1133 -31.7383 43.2129 -29.5898 45.8496 -29.5898 Z M 23.6328 1.66016 L 67.9199 1.66016 C 76.8555 1.66016 81.7383 -3.22266 81.7383 -12.1094 L 81.7383 -48.1445 C 81.7383 -57.0312 76.8555 -61.8652 67.9199 -61.8652 L 58.2031 -61.8652 L 58.2031 -51.2695 L 66.748 -51.2695 C 69.6289 -51.2695 71.1426 -49.9023 71.1426 -46.8262 L 71.1426 -13.4277 C 71.1426 -10.3516 69.6289 -8.93555 66.748 -8.93555 L 24.8047 -8.93555 C 21.9238 -8.93555 20.3613 -10.3516 20.3613 -13.4277 L 20.3613 -46.8262 C 20.3613 -49.9023 21.9238 -51.2695 24.8047 -51.2695 L 33.4961 -51.2695 L 33.4961 -61.8652 L 23.6328 -61.8652 C 14.6973 -61.8652 9.76562 -57.0312 9.76562 -48.1445 L 9.76562 -12.1094 C 9.76562 -3.22266 14.6973 1.66016 23.6328 1.66016 Z"/>
  </g>
  <g id="Semibold-S" transform="matrix(1 0 0 1 1998.1 696)">
   <path d="M 45.2148 -29.6875 C 47.6074 -29.6875 49.5117 -31.6406 49.5117 -33.8867 L 49.5117 -70.7031 L 49.1211 -76.416 L 50.9766 -73.8281 L 55.6641 -68.75 C 56.3965 -67.9688 57.4219 -67.5293 58.4961 -67.5293 C 60.5469 -67.5293 62.2559 -68.9941 62.2559 -71.1426 C 62.2559 -72.2656 61.8652 -73.0469 61.084 -73.8281 L 48.5352 -85.8398 C 47.4121 -86.9141 46.3379 -87.3047 45.2148 -87.3047 C 44.0918 -87.3047 43.0176 -86.9141 41.8945 -85.8398 L 29.3457 -73.8281 C 28.6133 -73.0469 28.1738 -72.2656 28.1738 -71.1426 C 28.1738 -68.9941 29.8828 -67.5293 31.9336 -67.5293 C 32.959 -67.5293 34.0332 -67.9688 34.7656 -68.75 L 39.4531 -73.8281 L 41.3086 -76.416 L 40.9668 -70.7031 L 40.9668 -33.8867 C 40.9668 -31.6406 42.8711 -29.6875 45.2148 -29.6875 Z M 23.0957 1.17188 L 67.2363 1.17188 C 75.9277 1.17188 80.5664 -3.36914 80.5664 -12.0117 L 80.5664 -48.584 C 80.5664 -57.2266 75.9277 -61.8164 67.2363 -61.8164 L 57.2266 -61.8164 L 57.2266 -52.4902 L 66.4551 -52.4902 C 69.5312 -52.4902 71.2402 -50.9277 71.2402 -47.6074 L 71.2402 -12.9883 C 71.2402 -9.7168 69.5312 -8.10547 66.4551 -8.10547 L 23.877 -8.10547 C 20.752 -8.10547 19.0918 -9.7168 19.0918 -12.9883 L 19.0918 -47.6074 C 19.0918 -50.9277 20.752 -52.4902 23.877 -52.4902 L 33.2031 -52.4902 L 33.2031 -61.8164 L 23.0957 -61.8164 C 14.4043 -61.8164 9.76562 -57.2266 9.76562 -48.584 L 9.76562 -12.0117 C 9.76562 -3.36914 14.4043 1.17188 23.0957 1.17188 Z"/>
  </g>
  <g id="Medium-S" transform="matrix(1 0 0 1 1701.85 696)">
   <path d="M 44.7266 -29.7852 C 46.875 -29.7852 48.6816 -31.543 48.6816 -33.6426 L 48.6816 -70.9961 L 48.3398 -76.7578 L 50.293 -74.3652 L 55.2734 -68.9453 C 55.957 -68.1641 56.9336 -67.7734 57.9102 -67.7734 C 59.8145 -67.7734 61.4258 -69.1895 61.4258 -71.1914 C 61.4258 -72.2168 60.9863 -72.9492 60.3027 -73.6816 L 47.7051 -85.6934 C 46.6797 -86.7188 45.752 -87.0605 44.7266 -87.0605 C 43.7012 -87.0605 42.7734 -86.7188 41.748 -85.6934 L 29.1992 -73.6816 C 28.4668 -72.9492 28.0762 -72.2168 28.0762 -71.1914 C 28.0762 -69.1895 29.5898 -67.7734 31.543 -67.7734 C 32.5195 -67.7734 33.5449 -68.1641 34.2285 -68.9453 L 39.209 -74.3652 L 41.1621 -76.7578 L 40.8203 -70.9961 L 40.8203 -33.6426 C 40.8203 -31.543 42.5781 -29.7852 44.7266 -29.7852 Z M 22.7051 0.830078 L 66.6992 0.830078 C 75.2441 0.830078 79.6387 -3.51562 79.6387 -11.9629 L 79.6387 -48.9258 C 79.6387 -57.373 75.2441 -61.7188 66.6992 -61.7188 L 56.4941 -61.7188 L 56.4941 -53.418 L 66.2109 -53.418 C 69.4824 -53.418 71.3379 -51.709 71.3379 -48.1934 L 71.3379 -12.6953 C 71.3379 -9.22852 69.4824 -7.4707 66.2109 -7.4707 L 23.1934 -7.4707 C 19.9219 -7.4707 18.0664 -9.22852 18.0664 -12.6953 L 18.0664 -48.1934 C 18.0664 -51.709 19.9219 -53.418 23.1934 -53.418 L 33.0078 -53.418 L 33.0078 -61.7188 L 22.7051 -61.7188 C 14.209 -61.7188 9.76562 -57.373 9.76562 -48.9258 L 9.76562 -11.9629 C 9.76562 -3.51562 14.209 0.830078 22.7051 0.830078 Z"/>
  </g>
  <g id="Regular-S" transform="matrix(1 0 0 1 1405.73 696)">
   <path d="M 44.0918 -29.8828 C 45.9961 -29.8828 47.6074 -31.4453 47.6074 -33.3008 L 47.6074 -71.3867 L 47.3145 -77.2461 L 49.3652 -75 L 54.7363 -69.1895 C 55.3711 -68.5059 56.25 -68.1641 57.0801 -68.1641 C 58.9355 -68.1641 60.3027 -69.4336 60.3027 -71.1914 C 60.3027 -72.168 59.9121 -72.8516 59.2285 -73.4863 L 46.6309 -85.5469 C 45.752 -86.4258 45.0195 -86.7188 44.0918 -86.7188 C 43.2129 -86.7188 42.4805 -86.4258 41.6016 -85.5469 L 28.9551 -73.4863 C 28.3203 -72.8516 27.9297 -72.168 27.9297 -71.1914 C 27.9297 -69.4336 29.248 -68.1641 31.1035 -68.1641 C 31.9336 -68.1641 32.8613 -68.5059 33.4961 -69.1895 L 38.8672 -75 L 40.918 -77.2461 L 40.625 -71.3867 L 40.625 -33.3008 C 40.625 -31.4453 42.2363 -29.8828 44.0918 -29.8828 Z M 22.2168 0.390625 L 66.0156 0.390625 C 74.3652 0.390625 78.4668 -3.71094 78.4668 -11.9141 L 78.4668 -49.3652 C 78.4668 -57.5684 74.3652 -61.6699 66.0156 -61.6699 L 55.5176 -61.6699 L 55.5176 -54.5898 L 65.918 -54.5898 C 69.3848 -54.5898 71.4355 -52.6855 71.4355 -49.0234 L 71.4355 -12.2559 C 71.4355 -8.54492 69.3848 -6.68945 65.918 -6.68945 L 22.3145 -6.68945 C 18.7988 -6.68945 16.7969 -8.54492 16.7969 -12.2559 L 16.7969 -49.0234 C 16.7969 -52.6855 18.7988 -54.5898 22.3145 -54.5898 L 32.7148 -54.5898 L 32.7148 -61.6699 L 22.2168 -61.6699 C 13.916 -61.6699 9.76562 -57.5684 9.76562 -49.3652 L 9.76562 -11.9141 C 9.76562 -3.71094 13.916 0.390625 22.2168 0.390625 Z"/>
  </g>
  <g id="Light-S" transform="matrix(1 0 0 1 1109.75 696)">
   <path d="M 43.4082 -29.9805 C 44.8242 -29.9805 46.0938 -31.1523 46.0938 -32.5684 L 46.0938 -72.8516 L 45.8496 -78.4668 L 48.877 -75.3418 L 55.0293 -68.8965 C 55.5176 -68.3594 56.2012 -68.0664 56.8848 -68.0664 C 58.252 -68.0664 59.3262 -69.0918 59.3262 -70.459 C 59.3262 -71.1914 59.0332 -71.7285 58.5449 -72.2168 L 45.3613 -85.0586 C 44.6777 -85.7422 44.0918 -85.9375 43.4082 -85.9375 C 42.7246 -85.9375 42.1387 -85.7422 41.4551 -85.0586 L 28.2227 -72.2168 C 27.7344 -71.7285 27.4414 -71.1914 27.4414 -70.459 C 27.4414 -69.0918 28.4668 -68.0664 29.8828 -68.0664 C 30.5176 -68.0664 31.25 -68.3594 31.7383 -68.8965 L 37.8906 -75.3418 L 40.918 -78.5156 L 40.7227 -72.8516 L 40.7227 -32.5684 C 40.7227 -31.1523 41.9434 -29.9805 43.4082 -29.9805 Z M 21.3867 -0.292969 L 65.332 -0.292969 C 73.0957 -0.292969 77.002 -4.15039 77.002 -11.7676 L 77.002 -49.707 C 77.002 -57.3242 73.0957 -61.2305 65.332 -61.2305 L 54.5898 -61.2305 L 54.5898 -55.8105 L 65.2344 -55.8105 C 69.2383 -55.8105 71.582 -53.6621 71.582 -49.4629 L 71.582 -12.0605 C 71.582 -7.86133 69.2383 -5.71289 65.2344 -5.71289 L 21.4844 -5.71289 C 17.4316 -5.71289 15.1855 -7.86133 15.1855 -12.0605 L 15.1855 -49.4629 C 15.1855 -53.6621 17.4316 -55.8105 21.4844 -55.8105 L 32.2266 -55.8105 L 32.2266 -61.2305 L 21.3867 -61.2305 C 13.6719 -61.2305 9.76562 -57.373 9.76562 -49.707 L 9.76562 -11.7676 C 9.76562 -4.15039 13.6719 -0.292969 21.3867 -0.292969 Z"/>
  </g>
  <g id="Thin-S" transform="matrix(1 0 0 1 814.015 696)">
   <path d="M 42.4316 -30.0781 C 43.3594 -30.0781 44.0918 -30.8105 44.0918 -31.6895 L 44.0918 -74.7559 L 43.9941 -80.127 L 48.2422 -75.8301 L 55.4199 -68.5059 C 55.7129 -68.1641 56.2012 -67.9688 56.5918 -67.9688 C 57.373 -67.9688 58.0566 -68.6523 58.0566 -69.4824 C 58.0566 -69.9219 57.9102 -70.2148 57.5684 -70.5566 L 43.6035 -84.4238 C 43.2617 -84.7656 42.8711 -84.9121 42.4316 -84.9121 C 42.041 -84.9121 41.6504 -84.7656 41.2598 -84.4238 L 27.2949 -70.5566 C 26.9531 -70.2148 26.8066 -69.9219 26.8066 -69.4824 C 26.8066 -68.6523 27.4414 -67.9688 28.2715 -67.9688 C 28.6621 -67.9688 29.1504 -68.1641 29.4434 -68.5059 L 36.6211 -75.8301 L 40.918 -80.1758 L 40.8203 -74.7559 L 40.8203 -31.6895 C 40.8203 -30.8105 41.5527 -30.0781 42.4316 -30.0781 Z M 20.3125 -1.12305 L 64.502 -1.12305 C 71.4355 -1.12305 75.0488 -4.78516 75.0488 -11.6211 L 75.0488 -50.1953 C 75.0488 -57.0312 71.4355 -60.6934 64.502 -60.6934 L 53.3691 -60.6934 L 53.3691 -57.373 L 64.4043 -57.373 C 69.0918 -57.373 71.7285 -54.8828 71.7285 -50 L 71.7285 -11.8164 C 71.7285 -6.93359 69.0918 -4.44336 64.4043 -4.44336 L 20.4102 -4.44336 C 15.625 -4.44336 13.0859 -6.93359 13.0859 -11.8164 L 13.0859 -50 C 13.0859 -54.8828 15.625 -57.373 20.4102 -57.373 L 31.543 -57.373 L 31.543 -60.6934 L 20.3125 -60.6934 C 13.3789 -60.6934 9.76562 -57.1289 9.76562 -50.1953 L 9.76562 -11.6211 C 9.76562 -4.6875 13.3789 -1.12305 20.3125 -1.12305 Z"/>
  </g>
  <g id="Ultralight-S" transform="matrix(1 0 0 1 517.792 696)">
   <path d="M 41.9434 -30.127 C 42.5781 -30.127 43.0664 -30.6152 43.0664 -31.2012 L 43.0664 -75.7324 L 43.0176 -81.0059 L 47.9004 -76.0742 L 55.6152 -68.3105 C 55.8105 -68.0664 56.1523 -67.9199 56.4453 -67.9199 C 56.9336 -67.9199 57.4219 -68.4082 57.4219 -68.9453 C 57.4219 -69.2383 57.3242 -69.4824 57.0801 -69.6777 L 42.7246 -84.082 C 42.4805 -84.2773 42.2363 -84.375 41.9434 -84.375 C 41.6992 -84.375 41.4062 -84.2773 41.1621 -84.082 L 26.7578 -69.6777 C 26.5625 -69.4824 26.4648 -69.2383 26.4648 -68.9453 C 26.4648 -68.4082 26.9043 -67.9199 27.4414 -67.9199 C 27.6855 -67.9199 28.0273 -68.0664 28.2715 -68.3105 L 35.9863 -76.0742 L 40.918 -81.0547 L 40.8691 -75.7324 L 40.8691 -31.2012 C 40.8691 -30.6152 41.3574 -30.127 41.9434 -30.127 Z M 19.7754 -1.5625 L 64.0625 -1.5625 C 70.6055 -1.5625 74.0723 -5.12695 74.0723 -11.5234 L 74.0723 -50.4395 C 74.0723 -56.8848 70.6055 -60.4004 64.0625 -60.4004 L 52.7344 -60.4004 L 52.7344 -58.2031 L 63.9648 -58.2031 C 68.9453 -58.2031 71.875 -55.5176 71.875 -50.3418 L 71.875 -11.6699 C 71.875 -6.44531 68.9453 -3.75977 63.9648 -3.75977 L 19.873 -3.75977 C 14.6484 -3.75977 11.9629 -6.44531 11.9629 -11.6699 L 11.9629 -50.3418 C 11.9629 -55.5176 14.6484 -58.2031 19.873 -58.2031 L 31.2012 -58.2031 L 31.2012 -60.4004 L 19.7754 -60.4004 C 13.2324 -60.4004 9.76562 -56.9824 9.76562 -50.4395 L 9.76562 -11.5234 C 9.76562 -5.0293 13.2324 -1.5625 19.7754 -1.5625 Z"/>
  </g>
 </g>
</svg>
